PathFileType	4	(X/Y/Z)	SUBJ24_0_static_RCNL2025.trc
DataRate	CameraRate	NumFrames	NumMarkers	Units	OrigDataRate	OrigDataStartFrame	OrigNumFrames
100	100	9	25	mm	100	47	92
Frame#	Time	R_Shoulder			L_Shoulder			C7			J_Notch			R_Elbow			L_Elbow			R_Wrist			L_Wrist			R_Asis			L_Asis			Sacral			Thoracic			Sternum			R_Thigh_Lateral			R_Knee_Lateral			R_Shank_Lateral			R_Ankle_Lateral			R_Heel			R_Toe			L_Thigh_Lateral			L_Knee_Lateral			L_Shank_Lateral			L_Ankle_Lateral			L_Heel			L_Toe		
		X1	Y1	Z1	X2	Y2	Z2	X3	Y3	Z3	X4	Y4	Z4	X5	Y5	Z5	X6	Y6	Z6	X7	Y7	Z7	X8	Y8	Z8	X9	Y9	Z9	X10	Y10	Z10	X11	Y11	Z11	X12	Y12	Z12	X13	Y13	Z13	X14	Y14	Z14	X15	Y15	Z15	X16	Y16	Z16	X17	Y17	Z17	X18	Y18	Z18	X19	Y19	Z19	X20	Y20	Z20	X21	Y21	Z21	X22	Y22	Z22	X23	Y23	Z23	X24	Y24	Z24	X25	Y25	Z25
47	0.46000000	-281.939880	1343.254761	-60.716995	-310.757080	1339.975220	-396.692230	-376.557953	1393.972656	-220.184723	-237.480515	1310.155273	-232.303024	-271.021240	1120.938477	110.886925	-334.179352	1107.600952	-560.842224	-201.833221	918.855194	207.278450	-272.488640	923.074280	-686.517365	-239.412170	889.488708	-65.295570	-246.363983	886.153809	-395.632385	-413.370697	931.468079	-221.406494	-424.188629	1121.830444	-223.541565	-158.442337	1093.973145	-241.308914	-350.833069	588.393005	-29.785063	-309.438141	447.404480	-103.292442	-337.848938	308.017487	-47.251163	-365.477600	70.775848	-110.402397	-410.942261	40.656170	-166.313797	-235.527069	42.684086	-118.802475	-321.527466	584.508240	-407.979309	-320.070953	452.151917	-353.520294	-351.946106	296.811981	-400.979889	-357.948639	68.368454	-329.766144	-398.981232	41.074795	-270.120667	-235.052643	46.713268	-312.320160
48	0.47000000	-282.084686	1343.294800	-60.742508	-310.907013	1339.974365	-396.711121	-376.628571	1393.979980	-220.238678	-237.613403	1310.182983	-232.316147	-271.073761	1121.067993	110.941772	-334.318542	1107.649902	-560.859131	-201.865883	918.998291	207.356400	-272.692261	923.245789	-686.529144	-239.478943	889.473816	-65.354469	-246.478012	886.040283	-395.418640	-413.458160	931.449707	-221.439972	-424.378693	1121.875488	-223.488281	-158.585693	1094.041138	-241.256821	-350.913605	588.465759	-29.761927	-309.545105	447.455719	-103.303658	-337.860199	308.021332	-47.236599	-365.505554	70.784317	-110.390022	-410.940674	40.630836	-166.340042	-235.511566	42.743362	-118.796562	-321.670074	584.684937	-408.031769	-320.144562	452.141266	-353.494232	-351.990051	296.804474	-401.011597	-357.958679	68.374550	-329.742920	-398.934601	41.030571	-270.175171	-235.048492	46.712292	-312.319672
49	0.48000000	-282.187897	1343.391357	-60.679066	-311.007202	1339.977661	-396.730011	-376.769562	1393.943237	-220.269852	-237.617477	1310.217285	-232.345474	-271.116302	1121.189819	110.976028	-334.424194	1107.725220	-560.906311	-201.793121	919.148071	207.425827	-272.782196	923.340851	-686.617279	-239.625534	889.437439	-65.290474	-246.462326	886.115601	-395.362396	-413.535095	931.510803	-221.389053	-424.546722	1121.850342	-223.477615	-158.596710	1094.088379	-241.275620	-350.987366	588.528137	-29.755373	-309.542755	447.398987	-103.291832	-337.872528	308.102844	-47.184490	-365.526947	70.854965	-110.356049	-410.957001	40.640148	-166.318329	-235.441116	42.841888	-118.970329	-321.646210	584.653992	-408.081909	-320.152252	452.140045	-353.498199	-351.994720	296.822540	-401.016632	-357.940277	68.375572	-329.786896	-398.959015	41.125755	-270.051422	-235.047058	46.738354	-312.322906
50	0.49000000	-282.317566	1343.459229	-60.733002	-311.173157	1340.048096	-396.680695	-376.957001	1393.994385	-220.207840	-237.750290	1310.268188	-232.359283	-271.189819	1121.245605	111.003387	-334.529602	1107.731323	-560.905212	-201.694115	919.318207	207.398994	-272.940468	923.417236	-686.687744	-239.715622	889.454651	-65.333359	-246.600784	886.122192	-395.365417	-413.669098	931.536987	-221.401443	-424.646576	1121.878418	-223.410385	-158.579208	1094.111572	-241.286514	-351.008667	588.539062	-29.759233	-309.521942	447.423401	-103.200462	-337.841278	307.999115	-47.274620	-365.505951	70.812691	-110.359444	-410.960205	40.663174	-166.314316	-235.568695	42.696178	-118.860840	-321.679199	584.550476	-408.011505	-320.202087	452.180115	-353.547699	-352.069305	296.846588	-400.963623	-357.961182	68.406433	-329.743011	-398.985718	41.120415	-270.069092	-235.098679	46.758327	-312.276123
51	0.50000000	-282.315735	1343.524292	-60.819977	-311.309235	1340.085083	-396.740997	-377.108795	1394.028320	-220.241394	-237.875473	1310.316650	-232.361542	-271.217255	1121.355591	111.016693	-334.603760	1107.813477	-560.965576	-201.671776	919.462036	207.534592	-272.992004	923.498138	-686.831665	-239.729462	889.500916	-65.272369	-246.685577	886.100037	-395.335876	-413.715820	931.481689	-221.360306	-424.767395	1121.802368	-223.428680	-158.666092	1094.191162	-241.322739	-351.032410	588.554871	-29.752861	-309.553253	447.486725	-103.255173	-337.882385	308.022491	-47.225140	-365.566193	70.887184	-110.389587	-410.960449	40.664906	-166.314835	-235.468384	42.723976	-118.855606	-321.773315	584.656311	-408.079498	-320.160767	452.173035	-353.463562	-352.068237	296.844574	-400.965912	-357.932922	68.392296	-329.784698	-399.073883	40.799099	-270.149628	-235.047241	46.733540	-312.317383
52	0.51000000	-282.451691	1343.654297	-60.806576	-311.471863	1340.117798	-396.736816	-377.215637	1393.992554	-220.286392	-237.978073	1310.385498	-232.427277	-271.334991	1121.503052	111.087799	-334.687622	1107.904175	-561.044678	-201.722313	919.612976	207.680595	-273.047005	923.563232	-686.917694	-239.922379	889.563232	-65.293266	-246.683304	886.088013	-395.330048	-413.850494	931.501038	-221.377335	-424.888855	1121.815918	-223.487518	-158.737228	1094.235474	-241.243378	-351.088776	588.541565	-29.742956	-309.464264	447.438477	-103.337227	-337.860901	308.028351	-47.241585	-365.526398	70.819801	-110.361847	-410.959625	40.663666	-166.315231	-235.485428	42.753517	-118.840477	-321.767487	584.542786	-407.843994	-320.280151	452.160889	-353.482788	-352.050262	296.932800	-400.997223	-357.937531	68.418549	-329.766632	-399.097748	40.665085	-270.298401	-235.031754	46.744930	-312.326599
53	0.52000000	-282.511444	1343.706421	-60.846062	-311.574127	1340.007690	-396.760773	-377.375488	1393.959961	-220.264343	-238.053375	1310.389648	-232.364532	-271.356384	1121.663330	111.088486	-334.834564	1107.897705	-561.059265	-201.753891	919.746552	207.730171	-273.110718	923.704315	-687.001587	-239.976288	889.596008	-65.247612	-246.757263	886.126038	-395.376740	-413.871368	931.402100	-221.371475	-425.078949	1121.802124	-223.452454	-158.713654	1094.338867	-241.259262	-351.122070	588.505188	-29.789244	-309.535461	447.456787	-103.285652	-337.873962	307.996460	-47.242832	-365.524963	70.859459	-110.345024	-410.925385	40.603165	-166.350128	-235.479034	42.765095	-118.847176	-321.956329	584.501160	-407.896332	-320.240509	452.193146	-353.509491	-352.071381	296.841980	-400.949829	-357.948914	68.416092	-329.759064	-399.100342	40.670780	-270.322968	-235.034882	46.760986	-312.312988
54	0.53000000	-282.709961	1343.745117	-60.835495	-311.850281	1340.067993	-396.892029	-377.556122	1394.009888	-220.250854	-238.233826	1310.374512	-232.330902	-271.493713	1121.753906	111.163895	-334.909180	1107.997681	-561.145813	-201.709206	919.868530	207.838425	-273.198486	923.730743	-687.090607	-240.116714	889.519958	-65.283867	-246.837296	886.102966	-395.371948	-413.913757	931.374817	-221.341827	-425.107239	1121.769043	-223.439346	-158.808655	1094.399048	-241.266068	-351.180115	588.492065	-29.788570	-309.615509	447.413116	-103.238365	-337.905273	307.981781	-47.267654	-365.538666	70.867508	-110.359619	-410.969482	40.597980	-166.294601	-235.445648	42.776844	-118.986832	-321.897278	584.411804	-407.880280	-320.238464	452.208008	-353.510468	-352.059479	296.849365	-400.966003	-357.949524	68.418526	-329.764435	-399.121307	40.678455	-270.310791	-235.048355	46.762764	-312.312225
55	0.54000000	-282.746887	1343.826660	-60.898441	-312.009186	1340.055664	-396.889740	-377.680237	1393.956177	-220.315765	-238.378342	1310.385986	-232.361694	-271.478027	1121.785889	111.155640	-334.989716	1107.992065	-561.199036	-201.783943	919.954254	207.868446	-273.256554	923.751099	-687.156219	-240.165878	889.540283	-65.249382	-246.918823	886.107483	-395.391113	-413.979187	931.391541	-221.405075	-425.212677	1121.676514	-223.466995	-158.863327	1094.471680	-241.213562	-351.221069	588.474426	-29.774534	-309.624054	447.410431	-103.235085	-338.045288	307.988434	-47.212933	-365.505829	70.844963	-110.211861	-410.930664	40.559002	-166.319702	-235.451950	42.731483	-118.853333	-321.811340	584.369324	-407.910522	-320.228516	452.156372	-353.472931	-352.117676	296.836090	-400.963440	-357.955078	68.396896	-329.763702	-398.994263	41.091469	-270.099457	-235.080322	46.734764	-312.352875
